<svg id="Logo_Hyperloop_UPV" data-name="Logo Hyperloop UPV" xmlns="http://www.w3.org/2000/svg" viewBox="0 0 850.39 850.39"><defs><style>.cls-1{fill:#1d1d1b;}</style></defs><path class="cls-1" d="M437.5,370.89q0-15.08,0-30.13,0-10.59,0-21.18V305.86c0-2.57,0-5.14,0-7.71,0-3.23-.06-6.45-1.41-9.44A7.35,7.35,0,0,0,425.86,285a19.93,19.93,0,0,0-4.48,3.53c-6.46,6.22-12.6,12.79-18.89,19.19-2.05,2.1-4.36,4-4.93,7.2l-.44,79.86H369.74c-9,.67-9.47-7.61-9.47-7.61V373.51c-.8-9.17-8.22-10.84-8.22-10.84-5.13-1.24-7,1.45-7,1.45L323.3,385.37c-4.57,3.8-3.91,10.85-3.91,10.85l.08,39c-.65,7.33,3.27,10.86,3.27,10.86l17.05,16.59c7,7.61,13.5,6.74,13.5,6.74,8.4-.5,7.7-7.86,7.7-7.86V445c.44-7.59,6.42-8.79,8.7-9h27.2l-.35,64c16.88-16.89,22.82-22.87,40.95-41,0-17.47,0-30.07,0-47.54Q437.51,391.15,437.5,370.89Z"/><path class="cls-1" d="M530.41,441.21s6.39-7.18,0-13.59c0,0-3.39-3.45-7.59-3.25h-29.4a10.58,10.58,0,0,0-7.48,3.1l-14.39,14.35h0l-56.61,56.6h0L400.39,513a10.58,10.58,0,0,0-3.1,7.48v29.4c-.2,4.2,3.25,7.59,3.25,7.59,6.41,6.39,13.59,0,13.59,0s7.49-7.46,30-29.93h0L500.68,471h0C523,448.65,530.41,441.21,530.41,441.21Z"/></svg>