<svg width="192" height="36" viewBox="0 0 192 36" fill="none" xmlns="http://www.w3.org/2000/svg">
<rect width="20.3302" height="18" transform="translate(60.3428)" fill="#FFD1AB"/>
<rect width="20.3302" height="18" transform="translate(70.26 18)" fill="#FA9F53"/>
<rect width="20.3302" height="18" transform="translate(80.6729)" fill="#F18429"/>
<rect width="20.3302" height="18" transform="translate(90.5901 18)" fill="#FFD1AB"/>
<rect width="20.3302" height="18" transform="translate(101.003)" fill="#FA9F53"/>
<rect width="20.3302" height="18" transform="translate(110.92 18)" fill="#F18429"/>
<rect width="20.3302" height="18" transform="translate(120.96)" fill="#FFD1AB"/>
<rect width="20.3302" height="18" transform="translate(130.877 18)" fill="#FA9F53"/>
<rect width="20.3302" height="18" transform="translate(141.29)" fill="#F18429"/>
<rect width="20.3302" height="18" transform="translate(151.207 18)" fill="#FFD1AB"/>
<rect width="20.3302" height="18" transform="translate(161.62)" fill="#FA9F53"/>
<rect width="20.3302" height="18" transform="translate(171.538 18)" fill="#F18429"/>
<rect width="20.3302" height="18" fill="#FFD1AB"/>
<rect width="20.3302" height="18" transform="translate(9.91724 18)" fill="#FA9F53"/>
<rect width="20.3302" height="18" transform="translate(20.3301)" fill="#F18429"/>
<rect width="20.3302" height="18" transform="translate(30.2473 18)" fill="#FFD1AB"/>
<rect width="20.3302" height="18" transform="translate(40.6604)" fill="#FA9F53"/>
<rect width="20.3302" height="18" transform="translate(50.5776 18)" fill="#F18429"/>
<rect width="192" height="36" fill="#FFF" fill-opacity="0" style="mix-blend-mode:hue"/>
</svg>
