<svg width="24" height="31" viewBox="0 0 24 31" fill="none" xmlns="http://www.w3.org/2000/svg">
<g clip-path="url(#clip0_1302_8729)">
<path d="M13.3603 9.99728C13.3603 8.88601 13.3603 7.77584 13.3603 6.66678C13.3603 5.88639 13.3603 5.10599 13.3603 4.3256V2.80902C13.3603 2.52494 13.3603 2.24086 13.3603 1.95678C13.3603 1.59974 13.3536 1.24381 13.2044 0.913303C13.1614 0.808514 13.097 0.713875 13.0152 0.635461C12.9335 0.557048 12.8363 0.496594 12.7298 0.457977C12.6233 0.41936 12.5099 0.403436 12.3969 0.411226C12.2839 0.419015 12.1738 0.450346 12.0736 0.50321C11.8907 0.608861 11.7239 0.740272 11.5784 0.893407C10.8643 1.58095 10.1856 2.30718 9.49035 3.01462C9.26375 3.24675 9.00841 3.45677 8.94541 3.81049L8.89677 12.638H5.87025C4.87541 12.7121 4.82346 11.7968 4.82346 11.7968V10.2869C4.73503 9.27326 3.91484 9.08866 3.91484 9.08866C3.34778 8.95159 3.14108 9.24894 3.14108 9.24894L0.736889 11.5979C0.231732 12.0179 0.30469 12.7972 0.30469 12.7972L0.313531 17.1082C0.241682 17.9184 0.674988 18.3086 0.674988 18.3086L2.55965 20.1424C3.33342 20.9836 4.05191 20.8874 4.05191 20.8874C4.98043 20.8322 4.90305 20.0186 4.90305 20.0186V18.1892C4.95168 17.3502 5.6127 17.2176 5.86473 17.1944H8.87135L8.83266 24.2688C10.6985 22.4018 11.3551 21.7408 13.3592 19.7367C13.3592 17.8056 13.3592 16.4129 13.3592 14.4818C13.3606 12.9851 13.361 11.4903 13.3603 9.99728Z" fill="#1D1D1B"/>
<path d="M23.6302 17.7703C23.6302 17.7703 24.3366 16.9766 23.6302 16.2681C23.6302 16.2681 23.2555 15.8867 22.7912 15.9088H19.5414C19.2313 15.9089 18.9339 16.0322 18.7146 16.2515L17.124 17.8377L10.8665 24.0941L9.25814 25.7058C9.03881 25.925 8.91555 26.2224 8.91548 26.5326V29.7824C8.89337 30.2466 9.27472 30.6214 9.27472 30.6214C9.98327 31.3277 10.7769 30.6214 10.7769 30.6214C10.7769 30.6214 11.6049 29.7968 14.0931 27.313L20.3439 21.0632C22.8111 18.5927 23.6302 17.7703 23.6302 17.7703Z" fill="#1D1D1B"/>
</g>
<defs>
<clipPath id="clip0_1302_8729">
<rect width="24" height="31" fill="white"/>
</clipPath>
</defs>
</svg>
