<svg width="2em" height="1em" viewBox="0 0 306 108" fill="none" xmlns="http://www.w3.org/2000/svg">
<path d="M64.2258 39.2833C64.2258 57.3169 54.0272 72.4624 40.2415 76.7038C40.114 76.743 39.9862 76.7813 39.858 76.8187C37.4614 77.5175 34.9592 77.8877 32.3857 77.8877C14.8009 77.8877 0.545654 60.6039 0.545654 39.2833C0.545654 17.9626 14.8009 0.678833 32.3857 0.678833C34.3767 0.678833 36.325 0.900391 38.2147 1.32428C39.4387 1.59884 40.6381 1.95827 41.8087 2.39737C54.7932 7.26802 64.2258 21.9401 64.2258 39.2833Z" fill="url(#paint0_linear_1027_5789)"/>
<path d="M305.881 30.0928C305.881 39.0442 300.654 46.5154 293.698 48.2643C292.69 48.518 291.645 48.6512 290.574 48.6512C282.12 48.6512 275.267 40.3423 275.267 30.0928C275.267 19.8432 282.12 11.5343 290.574 11.5343C291.645 11.5343 292.69 11.6676 293.698 11.9212C300.654 13.6701 305.881 21.1413 305.881 30.0928Z" fill="url(#paint1_linear_1027_5789)"/>
<path d="M290.574 48.6512C282.12 48.6512 275.267 40.3423 275.267 30.0928C275.267 19.8432 282.12 11.5343 290.574 11.5343C291.645 11.5343 292.69 11.6676 293.698 11.9212L41.8087 2.39737C54.7932 7.26802 64.2258 21.9401 64.2258 39.2833C64.2258 57.3169 54.0272 72.4624 40.2415 76.7038L293.698 48.2643C292.69 48.518 291.645 48.6512 290.574 48.6512Z" fill="url(#paint2_linear_1027_5789)"/>
<path d="M17.6154 66.9164C17.6154 63.4469 20.428 60.6343 23.8975 60.6343C27.367 60.6343 30.1796 63.4469 30.1796 66.9164V98.1797C30.1796 101.649 27.367 104.462 23.8975 104.462C20.428 104.462 17.6154 101.649 17.6154 98.1797V66.9164Z" fill="url(#paint3_linear_1027_5789)"/>
<path d="M153.213 55.8087C153.213 53.239 155.296 51.1559 157.866 51.1559C160.436 51.1559 162.519 53.239 162.519 55.8087V80.5708C162.519 83.1405 160.436 85.2236 157.866 85.2236C155.296 85.2236 153.213 83.1405 153.213 80.5708V55.8087Z" fill="url(#paint4_linear_1027_5789)"/>
<path d="M278.588 46.2362C278.588 44.9453 279.635 43.8988 280.926 43.8988C282.217 43.8988 283.263 44.9453 283.263 46.2362V62.4843C283.263 63.7752 282.217 64.8217 280.926 64.8217C279.635 64.8217 278.588 63.7752 278.588 62.4843V46.2362Z" fill="url(#paint5_linear_1027_5789)"/>
<path d="M53.7566 69.8214C53.7566 66.3267 56.5896 63.4937 60.0844 63.4937C63.5791 63.4937 66.4121 66.3267 66.4121 69.8214V100.993C66.4121 104.488 63.5791 107.321 60.0844 107.321C56.5896 107.321 53.7566 104.488 53.7566 100.993V69.8214Z" fill="url(#paint6_linear_1027_5789)"/>
<path d="M181.127 59.231C181.127 56.6629 183.209 54.5811 185.777 54.5811C188.345 54.5811 190.427 56.6629 190.427 59.231V83.9988C190.427 86.5669 188.345 88.6488 185.777 88.6488C183.209 88.6488 181.127 86.5669 181.127 83.9988V59.231Z" fill="url(#paint7_linear_1027_5789)"/>
<path d="M291.318 48.0032C291.318 46.7375 292.344 45.7114 293.61 45.7114C294.875 45.7114 295.902 46.7375 295.902 48.0032V64.3426C295.902 65.6083 294.875 66.6343 293.61 66.6343C292.344 66.6343 291.318 65.6083 291.318 64.3426V48.0032Z" fill="url(#paint8_linear_1027_5789)"/>
<defs>
<linearGradient id="paint0_linear_1027_5789" x1="153.213" y1="0.678833" x2="153.213" y2="107.321" gradientUnits="userSpaceOnUse">
<stop stop-color="#D9D9D9"/>
<stop offset="1" stop-color="#A1A1A1"/>
</linearGradient>
<linearGradient id="paint1_linear_1027_5789" x1="153.213" y1="0.678833" x2="153.213" y2="107.321" gradientUnits="userSpaceOnUse">
<stop stop-color="#D9D9D9"/>
<stop offset="1" stop-color="#A1A1A1"/>
</linearGradient>
<linearGradient id="paint2_linear_1027_5789" x1="153.213" y1="0.678833" x2="153.213" y2="107.321" gradientUnits="userSpaceOnUse">
<stop stop-color="#D9D9D9"/>
<stop offset="1" stop-color="#A1A1A1"/>
</linearGradient>
<linearGradient id="paint3_linear_1027_5789" x1="153.213" y1="0.678833" x2="153.213" y2="107.321" gradientUnits="userSpaceOnUse">
<stop stop-color="#D9D9D9"/>
<stop offset="1" stop-color="#A1A1A1"/>
</linearGradient>
<linearGradient id="paint4_linear_1027_5789" x1="153.213" y1="0.678833" x2="153.213" y2="107.321" gradientUnits="userSpaceOnUse">
<stop stop-color="#D9D9D9"/>
<stop offset="1" stop-color="#A1A1A1"/>
</linearGradient>
<linearGradient id="paint5_linear_1027_5789" x1="153.213" y1="0.678833" x2="153.213" y2="107.321" gradientUnits="userSpaceOnUse">
<stop stop-color="#D9D9D9"/>
<stop offset="1" stop-color="#A1A1A1"/>
</linearGradient>
<linearGradient id="paint6_linear_1027_5789" x1="153.213" y1="0.678833" x2="153.213" y2="107.321" gradientUnits="userSpaceOnUse">
<stop stop-color="#D9D9D9"/>
<stop offset="1" stop-color="#A1A1A1"/>
</linearGradient>
<linearGradient id="paint7_linear_1027_5789" x1="153.213" y1="0.678833" x2="153.213" y2="107.321" gradientUnits="userSpaceOnUse">
<stop stop-color="#D9D9D9"/>
<stop offset="1" stop-color="#A1A1A1"/>
</linearGradient>
<linearGradient id="paint8_linear_1027_5789" x1="153.213" y1="0.678833" x2="153.213" y2="107.321" gradientUnits="userSpaceOnUse">
<stop stop-color="#D9D9D9"/>
<stop offset="1" stop-color="#A1A1A1"/>
</linearGradient>
</defs>
</svg>
